PathFileType	4	(X/Y/Z)	output.trc
DataRate	CameraRate	NumFrames	NumMarkers	Units	OrigDataRate	OrigDataStartFrame	OrigNumFrames
100	100	15	23	m	100	1	5030
Frame#	Time	C7			T8			EL			EM			US			RS			AA			Fore_Clus_1			Fore_Clus_2			Fore_Clus_3			Fore_Clus_4			Hum_Clus_1			Hum_Clus_2			Hum_Clus_3			Hum_Clus_4			Thor_Clus_1			Thor_Clus_2			Thor_Clus_3			Thor_Clus_4			IJ			PX			GH			Thor_Clus_5		
		X1	Y1	Z1	X2	Y2	Z2	X3	Y3	Z3	X4	Y4	Z4	X5	Y5	Z5	X6	Y6	Z6	X7	Y7	Z7	X8	Y8	Z8	X9	Y9	Z9	X10	Y10	Z10	X11	Y11	Z11	X12	Y12	Z12	X13	Y13	Z13	X14	Y14	Z14	X15	Y15	Z15	X16	Y16	Z16	X17	Y17	Z17	X18	Y18	Z18	X19	Y19	Z19	X20	Y20	Z20	X21	Y21	Z21	X22	Y22	Z22	X23	Y23	Z23
0	0.000000	-0.017490	1.346746	-0.113638	-0.019187	1.144047	-0.132641	-0.188680	0.998765	0.030875	-0.156445	0.984036	-0.012889	-0.193330	0.776040	0.106011	-0.155621	0.787309	0.134633	-0.158155	1.261631	-0.017123	-0.218979	0.829757	0.116457	-0.214939	0.779199	0.137417	-0.192692	0.787460	0.152700	-0.183205	0.843090	0.140853	-0.191452	1.082284	0.063598	-0.223772	1.091824	0.013850	-0.225631	1.155474	0.014144	-0.187135	1.156347	0.058615	0.085199	1.263885	0.017669	0.040597	1.215804	0.070705	0.044415	1.261294	0.035285	0.099671	1.219276	0.044581	0.026584	1.283323	-0.028862	0.058951	1.094835	0.042422	-0.137881	1.248352	-0.022848	0.034168	1.235673	0.058333
1	0.010000	-0.017308	1.346740	-0.113663	-0.018985	1.144049	-0.132739	-0.188534	0.998746	0.030804	-0.156300	0.984031	-0.012966	-0.193130	0.775944	0.105902	-0.155473	0.787242	0.134580	-0.157976	1.261579	-0.017194	-0.218807	0.829665	0.116288	-0.214795	0.779103	0.137297	-0.192573	0.787369	0.152612	-0.183069	0.842992	0.140735	-0.191301	1.082250	0.063548	-0.223619	1.091810	0.013805	-0.225481	1.155462	0.014108	-0.186977	1.156324	0.058580	0.085383	1.263852	0.017597	0.040774	1.215762	0.070659	0.044609	1.261235	0.035228	0.099853	1.219217	0.044503	0.026763	1.283291	-0.028905	0.059138	1.094780	0.042314	-0.137729	1.248349	-0.022842	0.034486	1.235733	0.058326
2	0.020000	-0.017116	1.346740	-0.113693	-0.018775	1.144056	-0.132850	-0.188387	0.998723	0.030709	-0.156150	0.984023	-0.013065	-0.192940	0.775840	0.105758	-0.155339	0.787166	0.134499	-0.157795	1.261530	-0.017284	-0.218679	0.829567	0.116128	-0.214651	0.779003	0.137149	-0.192455	0.787272	0.152496	-0.182989	0.842916	0.140651	-0.191144	1.082217	0.063485	-0.223458	1.091817	0.013729	-0.225336	1.155449	0.014063	-0.186824	1.156284	0.058536	0.085555	1.263802	0.017518	0.040937	1.215709	0.070600	0.044777	1.261190	0.035178	0.100054	1.219175	0.044397	0.026944	1.283259	-0.028951	0.059319	1.094723	0.042198	-0.137581	1.248345	-0.022845	0.034374	1.235436	0.058021
3	0.030000	-0.016912	1.346751	-0.113723	-0.018560	1.144076	-0.132974	-0.188238	0.998695	0.030591	-0.155995	0.984014	-0.013184	-0.192761	0.775729	0.105579	-0.155219	0.787080	0.134387	-0.157613	1.261492	-0.017390	-0.218560	0.829449	0.115961	-0.214538	0.778889	0.136924	-0.192351	0.787133	0.152303	-0.182904	0.842816	0.140470	-0.190993	1.082179	0.063413	-0.223309	1.091810	0.013645	-0.225209	1.155433	0.014014	-0.186673	1.156250	0.058472	0.085722	1.263758	0.017472	0.041134	1.215658	0.070529	0.044928	1.261152	0.035122	0.100252	1.219095	0.044309	0.027128	1.283233	-0.029000	0.059491	1.094664	0.042070	-0.137435	1.248340	-0.022855	0.034592	1.235403	0.057961
4	0.040000	-0.016711	1.346757	-0.113760	-0.018350	1.144090	-0.133100	-0.188089	0.998662	0.030453	-0.155836	0.984002	-0.013321	-0.192595	0.775611	0.105370	-0.155116	0.786985	0.134252	-0.157435	1.261453	-0.017500	-0.218897	0.829540	0.116105	-0.214350	0.778702	0.136578	-0.192284	0.786998	0.152113	-0.182862	0.842706	0.140305	-0.190848	1.082143	0.063317	-0.223173	1.091791	0.013557	-0.225076	1.155403	0.013951	-0.186546	1.156208	0.058391	0.085883	1.263712	0.017433	0.041300	1.215599	0.070439	0.045098	1.261079	0.035063	0.100433	1.219018	0.044254	0.027309	1.283202	-0.029054	0.059657	1.094604	0.041943	-0.137293	1.248335	-0.022874	0.034772	1.235346	0.057880
5	0.050000	-0.016502	1.346780	-0.113794	-0.018146	1.144123	-0.133237	-0.187938	0.998625	0.030297	-0.155671	0.983989	-0.013475	-0.192442	0.775490	0.105129	-0.155026	0.786881	0.134085	-0.157257	1.261434	-0.017614	-0.218704	0.829361	0.115780	-0.214273	0.778556	0.136268	-0.192217	0.786835	0.151867	-0.182833	0.842593	0.140127	-0.190719	1.082099	0.063218	-0.223038	1.091758	0.013447	-0.224945	1.155381	0.013876	-0.186411	1.156162	0.058301	0.086069	1.263647	0.017385	0.041498	1.215523	0.070347	0.045265	1.261044	0.035011	0.100603	1.218963	0.044167	0.027491	1.283180	-0.029107	0.059812	1.094544	0.041802	-0.137153	1.248328	-0.022901	0.034898	1.235202	0.057573
6	0.060000	-0.016301	1.346800	-0.113831	-0.017958	1.144152	-0.133369	-0.187786	0.998585	0.030125	-0.155503	0.983974	-0.013643	-0.192303	0.775364	0.104861	-0.154951	0.786769	0.133893	-0.157084	1.261421	-0.017722	-0.218256	0.829025	0.115144	-0.214175	0.778381	0.135921	-0.192182	0.786686	0.151621	-0.182802	0.842456	0.139865	-0.190599	1.082046	0.063111	-0.222911	1.091703	0.013295	-0.224812	1.155329	0.013785	-0.186296	1.156098	0.058216	0.086222	1.263604	0.017341	0.041677	1.215445	0.070273	0.045418	1.261004	0.034947	0.100755	1.218902	0.044110	0.027669	1.283157	-0.029165	0.059958	1.094485	0.041664	-0.137015	1.248320	-0.022935	0.035079	1.235147	0.057500
7	0.070000	-0.016107	1.346824	-0.113868	-0.017788	1.144185	-0.133498	-0.187634	0.998542	0.029941	-0.155331	0.983958	-0.013822	-0.192180	0.775235	0.104567	-0.154889	0.786649	0.133675	-0.156916	1.261420	-0.017819	-0.218237	0.828910	0.114788	-0.214175	0.778250	0.135627	-0.192190	0.786550	0.151348	-0.182792	0.842328	0.139684	-0.190472	1.081982	0.062975	-0.222782	1.091656	0.013153	-0.224699	1.155280	0.013684	-0.186193	1.156020	0.058116	0.086357	1.263548	0.017298	0.041813	1.215390	0.070205	0.045571	1.260957	0.034886	0.100903	1.218828	0.044041	0.027841	1.283137	-0.029224	0.060094	1.094428	0.041523	-0.136880	1.248311	-0.022976	0.035247	1.235083	0.057417
8	0.080000	-0.015920	1.346855	-0.113903	-0.017640	1.144226	-0.133625	-0.187481	0.998498	0.029745	-0.155157	0.983941	-0.014011	-0.192072	0.775105	0.104247	-0.154839	0.786521	0.133428	-0.156752	1.261437	-0.017903	-0.218017	0.828594	0.114456	-0.214135	0.778075	0.135283	-0.192195	0.786401	0.151046	-0.182877	0.842264	0.139382	-0.190349	1.081912	0.062813	-0.222640	1.091621	0.012955	-0.224574	1.155228	0.013556	-0.186091	1.155951	0.058016	0.086505	1.263503	0.017252	0.041952	1.215332	0.070141	0.045716	1.260912	0.034823	0.101048	1.218771	0.043962	0.028010	1.283121	-0.029285	0.060220	1.094375	0.041381	-0.136746	1.248302	-0.023024	0.035393	1.235020	0.057344
9	0.090000	-0.015753	1.346875	-0.113943	-0.017520	1.144252	-0.133735	-0.187329	0.998454	0.029540	-0.154984	0.983925	-0.014209	-0.191981	0.774975	0.103909	-0.154802	0.786388	0.133160	-0.156600	1.261455	-0.017965	-0.218000	0.828434	0.114126	-0.214115	0.777955	0.134902	-0.192171	0.786257	0.150723	-0.182910	0.842113	0.139105	-0.190214	1.081827	0.062634	-0.222493	1.091575	0.012775	-0.224447	1.155185	0.013389	-0.185979	1.155884	0.057876	0.086631	1.263458	0.017203	0.042101	1.215289	0.070074	0.045887	1.260879	0.034768	0.101175	1.218709	0.043889	0.028167	1.283101	-0.029349	0.060338	1.094323	0.041249	-0.136614	1.248293	-0.023078	0.035521	1.234978	0.057293
10	0.100000	-0.015595	1.346901	-0.113980	-0.017424	1.144286	-0.133839	-0.187179	0.998410	0.029329	-0.154811	0.983909	-0.014413	-0.191904	0.774845	0.103548	-0.154774	0.786249	0.132864	-0.156452	1.261490	-0.018009	-0.218157	0.828416	0.113927	-0.214111	0.777799	0.134522	-0.192174	0.786107	0.150359	-0.182886	0.841901	0.138654	-0.190085	1.081774	0.062461	-0.222357	1.091532	0.012580	-0.224293	1.155135	0.013236	-0.185873	1.155814	0.057765	0.086775	1.263413	0.017144	0.042228	1.215240	0.069998	0.046015	1.260852	0.034710	0.101288	1.218653	0.043831	0.028319	1.283087	-0.029414	0.060445	1.094275	0.041116	-0.136484	1.248285	-0.023137	0.035643	1.234928	0.057215
11	0.110000	-0.015459	1.346914	-0.114022	-0.017357	1.144304	-0.133926	-0.187032	0.998368	0.029112	-0.154641	0.983896	-0.014623	-0.191843	0.774718	0.103171	-0.154756	0.786106	0.132548	-0.156316	1.261525	-0.018031	-0.218083	0.828239	0.113554	-0.214109	0.777680	0.134156	-0.192175	0.785947	0.149943	-0.182912	0.841762	0.138337	-0.189980	1.081716	0.062274	-0.222208	1.091504	0.012380	-0.224151	1.155095	0.013057	-0.185783	1.155754	0.057632	0.086978	1.263314	0.017006	0.042376	1.215194	0.069918	0.046162	1.260807	0.034645	0.101425	1.218590	0.043731	0.028459	1.283067	-0.029482	0.060546	1.094230	0.040997	-0.136357	1.248279	-0.023203	0.035771	1.234887	0.057146
12	0.120000	-0.015340	1.346918	-0.114068	-0.017314	1.144311	-0.133999	-0.186889	0.998329	0.028891	-0.154476	0.983884	-0.014837	-0.191797	0.774593	0.102780	-0.154746	0.785961	0.132210	-0.156189	1.261564	-0.018034	-0.218432	0.828336	0.113355	-0.214120	0.777549	0.133762	-0.192188	0.785801	0.149475	-0.182899	0.841596	0.138003	-0.189872	1.081657	0.062107	-0.222071	1.091468	0.012210	-0.224015	1.155059	0.012885	-0.185666	1.155706	0.057500	0.087188	1.263205	0.016857	0.042514	1.215148	0.069826	0.046306	1.260778	0.034576	0.101565	1.218548	0.043630	0.028589	1.283044	-0.029554	0.060640	1.094187	0.040886	-0.136232	1.248275	-0.023273	0.035878	1.234849	0.057072
13	0.130000	-0.015235	1.346917	-0.114117	-0.017293	1.144313	-0.134062	-0.186752	0.998294	0.028667	-0.154318	0.983877	-0.015054	-0.191764	0.774473	0.102373	-0.154743	0.785815	0.131851	-0.156069	1.261607	-0.018021	-0.218101	0.828099	0.112691	-0.214062	0.777366	0.133235	-0.192222	0.785635	0.149058	-0.182890	0.841466	0.137680	-0.189767	1.081620	0.061929	-0.221935	1.091435	0.012023	-0.223887	1.155031	0.012727	-0.185569	1.155669	0.057348	0.087338	1.263173	0.016769	0.042644	1.215111	0.069733	0.046449	1.260741	0.034491	0.101718	1.218486	0.043472	0.028711	1.283021	-0.029629	0.060727	1.094146	0.040782	-0.136108	1.248274	-0.023347	0.036046	1.234831	0.057005
14	0.140000	-0.015152	1.346892	-0.114177	-0.017291	1.144287	-0.134107	-0.186622	0.998264	0.028441	-0.154169	0.983872	-0.015275	-0.191745	0.774357	0.101959	-0.154747	0.785669	0.131478	-0.155960	1.261638	-0.017994	-0.218044	0.827964	0.112309	-0.214048	0.777245	0.132804	-0.192250	0.785485	0.148673	-0.182861	0.841310	0.137317	-0.189661	1.081593	0.061745	-0.221815	1.091403	0.011854	-0.223774	1.155023	0.012577	-0.185463	1.155636	0.057212	0.087483	1.263141	0.016665	0.042769	1.215065	0.069634	0.046566	1.260702	0.034411	0.101880	1.218451	0.043341	0.028821	1.282987	-0.029710	0.060812	1.094106	0.040695	-0.135988	1.248277	-0.023428	0.036186	1.234815	0.056949
